<?xml version="1.0" encoding="UTF-8" standalone="no"?>
<!-- Created with Inkscape (http://www.inkscape.org/) -->

<svg
   xmlns:dc="http://purl.org/dc/elements/1.1/"
   xmlns:cc="http://creativecommons.org/ns#"
   xmlns:rdf="http://www.w3.org/1999/02/22-rdf-syntax-ns#"
   xmlns:svg="http://www.w3.org/2000/svg"
   xmlns="http://www.w3.org/2000/svg"
   xmlns:sodipodi="http://sodipodi.sourceforge.net/DTD/sodipodi-0.dtd"
   xmlns:inkscape="http://www.inkscape.org/namespaces/inkscape"
   id="svg2"
   version="1.1"
   inkscape:version="0.48.3.1 r9886"
   width="1240.92"
   height="1240.92"
   xml:space="preserve"
   sodipodi:docname="favicon.svg"><metadata
     id="metadata8"><rdf:RDF><cc:Work
         rdf:about=""><dc:format>image/svg+xml</dc:format><dc:type
           rdf:resource="http://purl.org/dc/dcmitype/StillImage" /><dc:title></dc:title></cc:Work></rdf:RDF></metadata><defs
     id="defs6"><marker
       inkscape:stockid="Arrow1Lstart"
       orient="auto"
       refY="0"
       refX="0"
       id="Arrow1Lstart"
       style="overflow:visible"><path
         id="path3791"
         d="M 0,0 5,-5 -12.5,0 5,5 0,0 z"
         style="fill-rule:evenodd;stroke:#000000;stroke-width:1pt"
         transform="matrix(0.8,0,0,0.8,10,0)"
         inkscape:connector-curvature="0" /></marker><clipPath
       clipPathUnits="userSpaceOnUse"
       id="clipPath18"><path
         d="M 0,0 0,10 10,10 10,0 0,0"
         id="path20"
         inkscape:connector-curvature="0" /></clipPath></defs><sodipodi:namedview
     pagecolor="#ffffff"
     bordercolor="#666666"
     borderopacity="1"
     objecttolerance="10"
     gridtolerance="10"
     guidetolerance="10"
     inkscape:pageopacity="0"
     inkscape:pageshadow="2"
     inkscape:window-width="1023"
     inkscape:window-height="746"
     id="namedview4"
     showgrid="false"
     inkscape:zoom="0.38887745"
     inkscape:cx="388.36571"
     inkscape:cy="650.5342"
     inkscape:window-x="1367"
     inkscape:window-y="0"
     inkscape:window-maximized="1"
     inkscape:current-layer="g10"
     fit-margin-top="0"
     fit-margin-left="0"
     fit-margin-right="0"
     fit-margin-bottom="0" /><g
     id="g10"
     inkscape:groupmode="layer"
     inkscape:label="ink_ext_XXXXXX"
     transform="matrix(1.25,0,0,-1.25,-19.40625,1258.6355)"
     style="display:inline"><g
   id="g14"
   transform="scale(0.1,0.1)"><g
     clip-path="url(#clipPath18)"
     id="g16" /></g><path
   style="fill:none;stroke:#ffcc00;stroke-width:48;stroke-linecap:round;stroke-linejoin:round;stroke-miterlimit:4;stroke-opacity:1;stroke-dasharray:none;marker-start:none"
   d="M 371.21059,680.01992 523.44365,947.45636 677.7339,669.7339 984.2572,601.84619 774.42246,367.32501 807.33771,60.801707 517.27203,188.34827 231.32076,54.630107"
   id="path3001"
   inkscape:connector-curvature="0" /><g
   transform="scale(1.0721073,-0.93274246)"
   style="font-size:441.14916992px;font-style:normal;font-variant:normal;font-weight:300;font-stretch:normal;text-align:start;line-height:125%;letter-spacing:0px;word-spacing:0px;writing-mode:lr-tb;text-anchor:start;fill:#1a1a1a;fill-opacity:1;stroke:none;font-family:UnDinaru;-inkscape-font-specification:UnDinaru Light"
   id="text3007"><path
     d="m 180.34258,-583.62772 0,0.64621 0,-0.64621 m -61.39039,-19.81725 c 32.02337,2.3e-4 52.48681,6.82138 61.39039,20.46346 0.86143,2.01066 1.29224,4.0211 1.29242,6.03134 -1.8e-4,3.59028 -1.2208,6.24694 -3.66188,7.96998 -2.01062,2.01064 -5.09809,3.51847 -9.26241,4.5235 l -32.95694,-10.77024 -7.96998,-0.86162 c -1.14896,-0.287 -3.51841,-0.4306 -7.10836,-0.43081 -30.874792,2.1e-4 -52.199852,15.58114 -63.975249,46.74285 -6.174991,15.3657 -9.262458,29.65421 -9.262409,42.86557 -4.9e-5,24.12544 4.738853,44.87609 14.216721,62.25201 5.600458,9.62146 12.780613,17.51963 21.540487,23.69453 8.903308,5.74416 19.02733,9.33424 30.37209,10.77025 3.01555,2e-5 5.09779,0.28723 6.24674,0.86162 l 12.92429,-1.50784 9.69322,-3.01567 9.69322,-3.44647 8.8316,-4.52351 c 2.8719,-1.43599 5.60036,-2.15401 8.18538,-2.15404 2.72829,3e-5 5.24135,1.14886 7.53917,3.44647 l -0.43081,-0.86162 c 2.15387,2.44129 3.2309,5.67236 3.23108,9.69322 -1.8e-4,9.76504 -5.74431,16.58619 -17.23239,20.46347 -13.21165,4.30809 -27.06935,6.46214 -41.57314,6.46214 -41.501421,0 -71.801676,-18.81201 -90.900858,-56.43607 -9.047026,-17.95034 -13.570524,-36.90595 -13.570506,-56.86689 -1.8e-5,-8.47247 0.574395,-16.29884 1.723239,-23.47913 1.436012,-9.62127 2.943844,-17.23224 4.523502,-22.83292 4.595276,-15.65258 11.201018,-29.51028 19.817248,-41.57313 7.898127,-11.34445 18.452955,-20.46325 31.664515,-27.35642 12.924205,-6.74912 27.93073,-10.1238 45.01962,-10.12403"
     style=""
     id="path3021" /><path
     d="m 223.20814,-586.21258 c -3e-5,-5.02589 1.65141,-8.83137 4.95431,-11.41646 2.87203,-3.01544 6.39031,-4.52327 10.55484,-4.5235 4.45165,2.3e-4 8.11353,1.50806 10.98565,4.5235 2.87201,1.72347 4.30804,5.52895 4.3081,11.41646 l 0,34.89559 c 8.32892,-12.06248 14.21664,-20.31966 17.66319,-24.77156 5.02604,-6.74914 9.62134,-11.70345 13.78592,-14.86294 9.0469,-8.32876 18.3093,-12.49325 27.78722,-12.49348 4.73879,2.3e-4 9.11868,1.65167 13.1397,4.95431 l -0.43081,-0.43081 c 3.58995,3.0159 5.38499,6.96498 5.38512,11.84727 -1.3e-4,5.60074 -2.36958,9.83703 -7.10836,12.70889 -2.01057,1.86704 -7.8983,4.09289 -17.6632,6.67755 l 0.43081,-0.43081 c -7.89828,1.72343 -14.07321,3.80568 -18.52482,6.24674 -11.48834,7.03674 -20.03272,15.58113 -25.63317,25.63318 -5.8878,11.0576 -8.83166,23.83828 -8.8316,38.34206 l 0,117.39566 c -6e-5,10.48304 -4.81077,15.72455 -14.43213,15.72455 -4.45174,0 -8.11362,-1.43603 -10.98565,-4.3081 -3.59011,-3.01566 -5.38515,-7.18015 -5.38512,-12.49348 l 0,-204.63462"
     style=""
     id="path3023" /><path
     d="m 358.48238,-587.93582 c -2e-5,-4.45148 1.57961,-7.82615 4.73891,-10.12403 3.01563,-2.72823 6.74931,-4.09246 11.20105,-4.09269 9.62137,2.3e-4 14.43207,5.31355 14.43213,15.93996 l 0,19.38644 c 20.96599,-24.41233 43.43988,-36.6186 67.42172,-36.61883 13.64217,2.3e-4 25.56123,3.73391 35.75721,11.20105 10.33926,7.61119 20.10427,18.74043 29.29506,33.38776 21.10947,-29.72565 46.52722,-44.58858 76.25333,-44.58881 6.74908,2.3e-4 13.49842,0.93365 20.24805,2.80026 6.17465,2.01068 12.49319,4.59553 18.95563,7.75458 12.34956,7.46758 21.89917,17.23259 28.64885,29.29506 6.74901,12.06286 10.12368,26.56677 10.12403,43.51178 l 0,140.44398 c -3.5e-4,4.0209 -1.57998,7.68277 -4.73891,10.98564 -3.30321,2.58486 -7.10869,3.87729 -11.41646,3.87729 -3.87761,0 -7.32408,-1.43603 -10.33943,-4.3081 -3.15959,-3.30287 -4.73922,-6.82114 -4.73891,-10.55483 l 0,-137.64371 c -3.1e-4,-7.03641 -0.57472,-12.92413 -1.72324,-17.6632 -0.86193,-5.88756 -2.36976,-10.77007 -4.5235,-14.64754 -8.76009,-18.52461 -24.91544,-27.78701 -48.46609,-27.78722 -16.22741,2.1e-4 -29.94151,4.73911 -41.14233,14.21672 -11.05766,9.3344 -16.58638,24.62813 -16.58618,45.88124 l 0,137.64371 c -2e-4,4.0209 -1.65163,7.39557 -4.95431,10.12402 -3.15946,2.58486 -6.82134,3.87729 -10.98565,3.87729 -3.87747,0 -7.25214,-1.43603 -10.12403,-4.30809 -3.30304,-2.72846 -4.95448,-5.95953 -4.95431,-9.69322 l 0,-135.48967 c -1.7e-4,-20.8223 -5.24168,-36.40323 -15.72456,-46.74285 -10.33957,-10.33923 -23.62286,-15.50894 -39.8499,-15.50915 -10.48314,2.1e-4 -20.03274,2.22606 -28.64884,6.67755 -7.89826,4.4519 -14.504,10.62683 -19.81725,18.52482 -2.87213,5.6007 -4.81077,10.41141 -5.81593,14.43212 -1.43609,6.60592 -2.15411,12.49364 -2.15405,17.6632 l 0,140.44398 c -6e-5,9.90862 -5.16977,14.86293 -15.50915,14.86293 -3.73372,0 -7.1084,-1.43603 -10.12403,-4.3081 -3.1593,-3.30287 -4.73893,-6.82114 -4.73891,-10.55483 l 0,-208.29651"
     style=""
     id="path3025" /></g>


</g></svg>