<?xml version="1.0" encoding="UTF-8" standalone="no"?>
<!-- Created with Inkscape (http://www.inkscape.org/) -->

<svg
   xmlns:dc="http://purl.org/dc/elements/1.1/"
   xmlns:cc="http://creativecommons.org/ns#"
   xmlns:rdf="http://www.w3.org/1999/02/22-rdf-syntax-ns#"
   xmlns:svg="http://www.w3.org/2000/svg"
   xmlns="http://www.w3.org/2000/svg"
   xmlns:sodipodi="http://sodipodi.sourceforge.net/DTD/sodipodi-0.dtd"
   xmlns:inkscape="http://www.inkscape.org/namespaces/inkscape"
   id="svg2"
   version="1.1"
   inkscape:version="0.48.3.1 r9886"
   width="1090.1401"
   height="611.80853"
   xml:space="preserve"
   sodipodi:docname="logo-blanco.svg"><metadata
     id="metadata8"><rdf:RDF><cc:Work
         rdf:about=""><dc:format>image/svg+xml</dc:format><dc:type
           rdf:resource="http://purl.org/dc/dcmitype/StillImage" /><dc:title></dc:title></cc:Work></rdf:RDF></metadata><defs
     id="defs6"><marker
       inkscape:stockid="Arrow1Lstart"
       orient="auto"
       refY="0"
       refX="0"
       id="Arrow1Lstart"
       style="overflow:visible"><path
         id="path3791"
         d="M 0,0 5,-5 -12.5,0 5,5 0,0 z"
         style="fill-rule:evenodd;stroke:#000000;stroke-width:1pt"
         transform="matrix(0.8,0,0,0.8,10,0)"
         inkscape:connector-curvature="0" /></marker><clipPath
       clipPathUnits="userSpaceOnUse"
       id="clipPath18"><path
         d="M 0,0 0,10 10,10 10,0 0,0"
         id="path20"
         inkscape:connector-curvature="0" /></clipPath></defs><sodipodi:namedview
     pagecolor="#ffffff"
     bordercolor="#666666"
     borderopacity="1"
     objecttolerance="10"
     gridtolerance="10"
     guidetolerance="10"
     inkscape:pageopacity="0"
     inkscape:pageshadow="2"
     inkscape:window-width="1023"
     inkscape:window-height="746"
     id="namedview4"
     showgrid="false"
     inkscape:zoom="0.38887745"
     inkscape:cx="339.50713"
     inkscape:cy="175.89056"
     inkscape:window-x="1367"
     inkscape:window-y="0"
     inkscape:window-maximized="1"
     inkscape:current-layer="g10"
     fit-margin-top="0"
     fit-margin-left="0"
     fit-margin-right="0"
     fit-margin-bottom="0" /><g
     id="g10"
     inkscape:groupmode="layer"
     inkscape:label="ink_ext_XXXXXX"
     transform="matrix(1.25,0,0,-1.25,-65.693323,1104.1679)"
     style="display:inline"><g
   id="g14"
   transform="scale(0.1,0.1)"><g
     clip-path="url(#clipPath18)"
     id="g16" /></g><path
   style="fill:none;stroke:#ffcc00;stroke-width:31.09721375;stroke-linecap:round;stroke-linejoin:round;stroke-miterlimit:4;stroke-opacity:1;stroke-dasharray:none;stroke-dashoffset:0;marker-start:none"
   d="M 594.47867,730.50812 672.61338,867.77181 751.80397,725.22875 909.12927,690.38489 801.43007,570.0152 818.32406,412.6899 669.44575,478.15409 522.67919,409.52228"
   id="path3001"
   inkscape:connector-curvature="0" /><g
   transform="scale(1.0721073,-0.93274246)"
   style="font-size:441.14916992px;font-style:normal;font-variant:normal;font-weight:300;font-stretch:normal;text-align:start;line-height:125%;letter-spacing:0px;word-spacing:0px;writing-mode:lr-tb;text-anchor:start;fill:#ffffff;fill-opacity:1;stroke:none;font-family:UnDinaru;-inkscape-font-specification:UnDinaru Light"
   id="text3007"><path
     d="m 214.88171,-738.01576 0,0.64622 0,-0.64622 M 153.49132,-757.833 c 32.02337,2.3e-4 52.48682,6.82138 61.39039,20.46346 0.86144,2.01066 1.29225,4.0211 1.29243,6.03134 -1.8e-4,3.59028 -1.22081,6.24694 -3.66188,7.96998 -2.01063,2.01064 -5.09809,3.51847 -9.26241,4.5235 l -32.95695,-10.77025 -7.96998,-0.86161 c -1.14895,-0.287 -3.5184,-0.43061 -7.10836,-0.43081 -30.87479,2e-4 -52.19985,15.58114 -63.975244,46.74285 -6.174992,15.3657 -9.262458,29.6542 -9.26241,42.86557 -4.8e-5,24.12544 4.738854,44.87609 14.216721,62.25201 5.600463,9.62146 12.780613,17.51963 21.540483,23.69453 8.90331,5.74416 19.02733,9.33424 30.37209,10.77025 3.01555,2e-5 5.0978,0.28723 6.24674,0.86162 l 12.92429,-1.50784 9.69322,-3.01567 9.69322,-3.44647 8.8316,-4.52351 c 2.8719,-1.43599 5.60036,-2.15401 8.18539,-2.15405 2.72829,4e-5 5.24134,1.14887 7.53917,3.44648 l -0.43081,-0.86162 c 2.15387,2.44129 3.23089,5.67236 3.23107,9.69322 -1.8e-4,9.76504 -5.7443,16.58618 -17.23239,20.46346 -13.21165,4.3081 -27.06935,6.46215 -41.57314,6.46215 -41.50142,0 -71.801671,-18.81201 -90.900853,-56.43607 -9.047026,-17.95034 -13.570524,-36.90595 -13.570507,-56.86689 -1.7e-5,-8.47247 0.574395,-16.29884 1.723239,-23.47913 1.436012,-9.62127 2.943845,-17.23224 4.523502,-22.83292 4.595276,-15.65258 11.201019,-29.51028 19.817248,-41.57314 7.898128,-11.34444 18.452956,-20.46324 31.664511,-27.35641 12.92421,-6.74912 27.93073,-10.1238 45.01962,-10.12403"
     style=""
     id="path3011" /><path
     d="m 257.74727,-740.60061 c -2e-5,-5.02589 1.65141,-8.83138 4.95432,-11.41646 2.87202,-3.01544 6.3903,-4.52327 10.55483,-4.5235 4.45166,2.3e-4 8.11354,1.50806 10.98565,4.5235 2.87201,1.72347 4.30804,5.52895 4.3081,11.41646 l 0,34.89559 c 8.32892,-12.06248 14.21665,-20.31966 17.6632,-24.77156 5.02603,-6.74914 9.62133,-11.70345 13.78591,-14.86294 9.04691,-8.32876 18.30931,-12.49325 27.78723,-12.49348 4.73878,2.3e-4 9.11868,1.65167 13.1397,4.95431 l -0.43081,-0.43081 c 3.58994,3.0159 5.38498,6.96498 5.38512,11.84727 -1.4e-4,5.60074 -2.36959,9.83703 -7.10836,12.70888 -2.01058,1.86705 -7.8983,4.0929 -17.6632,6.67756 l 0.43081,-0.43081 c -7.89829,1.72343 -14.07322,3.80568 -18.52482,6.24674 -11.48834,7.03674 -20.03273,15.58113 -25.63318,25.63318 -5.8878,11.0576 -8.83166,23.83828 -8.8316,38.34206 l 0,117.39566 c -6e-5,10.48304 -4.81076,15.72455 -14.43213,15.72455 -4.45174,0 -8.11362,-1.43603 -10.98564,-4.3081 -3.59012,-3.01566 -5.38515,-7.18015 -5.38513,-12.49348 l 0,-204.63462"
     style=""
     id="path3013" /><path
     d="m 393.02152,-742.32385 c -3e-5,-4.45148 1.5796,-7.82615 4.7389,-10.12403 3.01564,-2.72823 6.74932,-4.09246 11.20106,-4.09269 9.62136,2.3e-4 14.43207,5.31355 14.43212,15.93996 l 0,19.38643 c 20.966,-24.41232 43.43988,-36.61859 67.42173,-36.61882 13.64217,2.3e-4 25.56122,3.73391 35.7572,11.20105 10.33927,7.61119 20.10428,18.74043 29.29507,33.38775 21.10946,-29.72565 46.52721,-44.58857 76.25332,-44.5888 6.74908,2.3e-4 13.49843,0.93365 20.24806,2.80026 6.17465,2.01068 12.49318,4.59553 18.95563,7.75458 12.34956,7.46758 21.89916,17.23259 28.64884,29.29506 6.74902,12.06285 10.12369,26.56677 10.12403,43.51178 l 0,140.44397 c -3.4e-4,4.0209 -1.57998,7.68278 -4.73891,10.98565 -3.3032,2.58486 -7.10869,3.87729 -11.41645,3.87729 -3.87761,0 -7.32409,-1.43603 -10.33944,-4.3081 -3.15958,-3.30287 -4.73922,-6.82114 -4.7389,-10.55484 l 0,-137.64371 c -3.2e-4,-7.0364 -0.57473,-12.92413 -1.72324,-17.66319 -0.86193,-5.88756 -2.36976,-10.77007 -4.5235,-14.64754 -8.7601,-18.52461 -24.91545,-27.78701 -48.4661,-27.78722 -16.22741,2.1e-4 -29.9415,4.73911 -41.14233,14.21672 -11.05765,9.33439 -16.58637,24.62813 -16.58617,45.88123 l 0,137.64371 c -2e-4,4.0209 -1.65164,7.39558 -4.95432,10.12403 -3.15946,2.58486 -6.82134,3.87729 -10.98565,3.87729 -3.87746,0 -7.25214,-1.43603 -10.12402,-4.3081 -3.30305,-2.72845 -4.95448,-5.95952 -4.95432,-9.69322 l 0,-135.48966 c -1.6e-4,-20.8223 -5.24168,-36.40324 -15.72455,-46.74285 -10.33958,-10.33923 -23.62286,-15.50894 -39.8499,-15.50915 -10.48314,2.1e-4 -20.03275,2.22605 -28.64885,6.67755 -7.89825,4.4519 -14.504,10.62683 -19.81725,18.52482 -2.87212,5.6007 -4.81077,10.41141 -5.81593,14.43212 -1.43609,6.60591 -2.1541,12.49364 -2.15405,17.6632 l 0,140.44397 c -5e-5,9.90863 -5.16977,14.86294 -15.50915,14.86294 -3.73372,0 -7.10839,-1.43603 -10.12403,-4.3081 -3.1593,-3.30287 -4.73893,-6.82114 -4.7389,-10.55484 l 0,-208.2965"
     style=""
     id="path3015" /></g>

</g></svg>