<?xml version="1.0" encoding="UTF-8" standalone="no"?>
<!-- Created with Inkscape (http://www.inkscape.org/) -->

<svg
   xmlns:dc="http://purl.org/dc/elements/1.1/"
   xmlns:cc="http://creativecommons.org/ns#"
   xmlns:rdf="http://www.w3.org/1999/02/22-rdf-syntax-ns#"
   xmlns:svg="http://www.w3.org/2000/svg"
   xmlns="http://www.w3.org/2000/svg"
   xmlns:sodipodi="http://sodipodi.sourceforge.net/DTD/sodipodi-0.dtd"
   xmlns:inkscape="http://www.inkscape.org/namespaces/inkscape"
   id="svg2"
   version="1.1"
   inkscape:version="0.48.3.1 r9886"
   width="1090.1401"
   height="611.80853"
   xml:space="preserve"
   sodipodi:docname="logo.svg"><metadata
     id="metadata8"><rdf:RDF><cc:Work
         rdf:about=""><dc:format>image/svg+xml</dc:format><dc:type
           rdf:resource="http://purl.org/dc/dcmitype/StillImage" /><dc:title></dc:title></cc:Work></rdf:RDF></metadata><defs
     id="defs6"><marker
       inkscape:stockid="Arrow1Lstart"
       orient="auto"
       refY="0"
       refX="0"
       id="Arrow1Lstart"
       style="overflow:visible"><path
         id="path3791"
         d="M 0,0 5,-5 -12.5,0 5,5 0,0 z"
         style="fill-rule:evenodd;stroke:#000000;stroke-width:1pt"
         transform="matrix(0.8,0,0,0.8,10,0)"
         inkscape:connector-curvature="0" /></marker><clipPath
       clipPathUnits="userSpaceOnUse"
       id="clipPath18"><path
         d="M 0,0 0,10 10,10 10,0 0,0"
         id="path20"
         inkscape:connector-curvature="0" /></clipPath></defs><sodipodi:namedview
     pagecolor="#ffffff"
     bordercolor="#666666"
     borderopacity="1"
     objecttolerance="10"
     gridtolerance="10"
     guidetolerance="10"
     inkscape:pageopacity="0"
     inkscape:pageshadow="2"
     inkscape:window-width="1366"
     inkscape:window-height="722"
     id="namedview4"
     showgrid="false"
     inkscape:zoom="0.38887745"
     inkscape:cx="339.50713"
     inkscape:cy="175.89056"
     inkscape:window-x="0"
     inkscape:window-y="24"
     inkscape:window-maximized="1"
     inkscape:current-layer="g10"
     fit-margin-top="0"
     fit-margin-left="0"
     fit-margin-right="0"
     fit-margin-bottom="0" /><g
     id="g10"
     inkscape:groupmode="layer"
     inkscape:label="ink_ext_XXXXXX"
     transform="matrix(1.25,0,0,-1.25,-65.693323,1104.1679)"
     style="display:inline"><g
   id="g14"
   transform="scale(0.1,0.1)"><g
     clip-path="url(#clipPath18)"
     id="g16" /></g><path
   style="fill:none;stroke:#ffcc00;stroke-width:31.09721375;stroke-linecap:round;stroke-linejoin:round;stroke-miterlimit:4;stroke-opacity:1;stroke-dasharray:none;stroke-dashoffset:0;marker-start:none"
   d="M 594.47867,730.50812 672.61338,867.77181 751.80397,725.22875 909.12927,690.38489 801.43007,570.0152 818.32406,412.6899 669.44575,478.15409 522.67919,409.52228"
   id="path3001"
   inkscape:connector-curvature="0" /><path
   style="font-size:441.14916992px;font-style:normal;font-variant:normal;font-weight:300;font-stretch:normal;text-align:start;line-height:125%;letter-spacing:0px;word-spacing:0px;writing-mode:lr-tb;text-anchor:start;fill:#1a1a1a;fill-opacity:1;stroke:none;font-family:UnDinaru;-inkscape-font-specification:UnDinaru Light"
   d="M 140 220.59375 C 117.0986 220.59403 97.007675 224.53726 79.6875 232.40625 C 61.98225 240.44319 47.834551 251.05445 37.25 264.28125 C 25.703097 278.34567 16.845786 294.50023 10.6875 312.75 C 8.5705475 319.28 6.5494487 328.15729 4.625 339.375 C 3.085395 347.7467 2.3124775 356.87171 2.3125 366.75 C 2.3124775 390.02303 8.3757712 412.1337 20.5 433.0625 C 46.095465 476.92945 86.695037 498.875 142.3125 498.875 C 161.74953 498.875 180.32586 496.33544 198.03125 491.3125 C 213.42682 486.79188 221.12476 478.85409 221.125 467.46875 C 221.12476 462.78071 219.66773 459.00262 216.78125 456.15625 L 217.375 457.15625 C 214.2956 454.4774 210.93752 453.1563 207.28125 453.15625 C 203.81696 453.1563 200.12998 453.98199 196.28125 455.65625 L 184.46875 460.9375 L 171.46875 464.96875 L 158.46875 468.46875 L 141.15625 470.21875 C 139.61653 469.54905 136.82249 469.21878 132.78125 469.21875 C 117.57775 467.54446 104.02537 463.35352 92.09375 456.65625 C 80.35435 449.45676 70.724125 440.24919 63.21875 429.03125 C 50.517136 408.77219 44.156186 384.59728 44.15625 356.46875 C 44.156186 341.06525 48.318433 324.38405 56.59375 306.46875 C 72.374354 270.13644 100.93615 251.96899 142.3125 251.96875 C 147.12354 251.96899 150.304 252.16537 151.84375 252.5 L 162.53125 253.5 L 206.6875 266.03125 C 212.26825 264.85945 216.39923 263.12551 219.09375 260.78125 C 222.3651 258.7723 223.99976 255.65475 224 251.46875 C 223.99976 249.12495 223.4357 246.78179 222.28125 244.4375 C 210.34927 228.53181 182.91561 220.59402 140 220.59375 z M 400.375 220.59375 C 387.67331 220.59402 375.28032 225.44551 363.15625 235.15625 C 357.57516 238.83999 351.42305 244.63099 344.6875 252.5 C 340.06866 257.69059 332.16188 267.31102 321 281.375 L 321 240.6875 C 320.99993 233.82307 319.06762 229.38444 315.21875 227.375 C 311.36974 223.85921 306.46582 222.09401 300.5 222.09375 C 294.91897 222.09401 290.2239 223.85921 286.375 227.375 C 281.94866 230.38901 279.71873 234.82766 279.71875 240.6875 L 279.71875 479.28125 C 279.71873 485.47621 282.12625 490.32771 286.9375 493.84375 C 290.78639 497.19237 295.69033 498.875 301.65625 498.875 C 314.55018 498.875 320.99992 492.75371 321 480.53125 L 321 343.65625 C 320.99993 326.74589 324.9533 311.82986 332.84375 298.9375 C 340.3491 287.21754 351.79158 277.26682 367.1875 269.0625 C 373.15324 266.2164 381.44649 263.79064 392.03125 261.78125 L 391.4375 262.28125 C 404.52378 259.26773 412.43055 256.67684 415.125 254.5 C 421.47559 251.15163 424.62481 246.21755 424.625 239.6875 C 424.62481 233.9951 422.21725 229.39132 417.40625 225.875 L 418 226.375 C 412.6113 222.52436 406.7256 220.59402 400.375 220.59375 z M 592.0625 220.59375 C 559.9236 220.59402 529.816 234.81824 501.71875 263.28125 L 501.71875 240.6875 C 501.71869 228.29786 495.26891 222.09401 482.375 222.09375 C 476.40907 222.09401 471.38511 223.69409 467.34375 226.875 C 463.10986 229.55416 460.99996 233.46614 461 238.65625 L 461 481.53125 C 460.99996 485.88448 463.10986 489.99285 467.34375 493.84375 C 471.38511 497.19238 475.93381 498.875 480.9375 498.875 C 494.79365 498.875 501.71869 493.084 501.71875 481.53125 L 501.71875 317.78125 C 501.71869 311.75391 502.6692 304.88951 504.59375 297.1875 C 505.9408 292.49964 508.55722 286.90501 512.40625 280.375 C 519.52673 271.16651 528.35279 263.94059 538.9375 258.75 C 550.48424 253.55986 563.29494 250.969 577.34375 250.96875 C 599.09016 250.969 616.89357 257.0077 630.75 269.0625 C 644.79845 281.11774 651.81227 299.28519 651.8125 323.5625 L 651.8125 481.53125 C 651.81228 485.88447 654.04221 489.66258 658.46875 492.84375 C 662.31745 496.19239 666.83494 497.84375 672.03125 497.84375 C 677.61199 497.84375 682.5159 496.35751 686.75 493.34375 C 691.17604 490.16258 693.37474 486.21933 693.375 481.53125 L 693.375 321.0625 C 693.37474 296.28291 700.80626 278.44573 715.625 267.5625 C 730.63561 256.51229 749.00309 250.969 770.75 250.96875 C 802.31102 250.969 823.97904 261.77664 835.71875 283.375 C 838.60505 287.89585 840.62614 293.60428 841.78125 300.46875 C 843.3204 305.99415 844.06207 312.85856 844.0625 321.0625 L 844.0625 481.53125 C 844.06207 485.88448 846.20324 489.99285 850.4375 493.84375 C 854.47848 497.19238 859.08474 498.875 864.28125 498.875 C 870.05422 498.875 875.16702 497.35751 879.59375 494.34375 C 883.82714 490.49284 885.93705 486.21933 885.9375 481.53125 L 885.9375 317.78125 C 885.93705 298.02459 881.41959 281.12691 872.375 267.0625 C 863.32951 252.99852 850.51881 241.61291 833.96875 232.90625 C 825.3082 229.22303 816.83735 226.18806 808.5625 223.84375 C 799.51709 221.66742 790.48217 220.59402 781.4375 220.59375 C 741.60052 220.59402 707.53951 237.90453 679.25 272.5625 C 666.93311 255.48478 653.85601 242.53035 640 233.65625 C 626.33603 224.9501 610.34484 220.59402 592.0625 220.59375 z "
   transform="matrix(0.8,0,0,-0.8,52.554658,883.33432)"
   id="path2992" />
</g></svg>