<?xml version="1.0" encoding="UTF-8" standalone="no"?>
<svg
   xmlns:dc="http://purl.org/dc/elements/1.1/"
   xmlns:cc="http://creativecommons.org/ns#"
   xmlns:rdf="http://www.w3.org/1999/02/22-rdf-syntax-ns#"
   xmlns:svg="http://www.w3.org/2000/svg"
   xmlns="http://www.w3.org/2000/svg"
   xmlns:sodipodi="http://sodipodi.sourceforge.net/DTD/sodipodi-0.dtd"
   xmlns:inkscape="http://www.inkscape.org/namespaces/inkscape"
   height="384"
   id="Layer_1"
   version="1.1"
   viewBox="0 0 384 384"
   width="384"
   xml:space="preserve"
   inkscape:version="0.48.3.1 r9886"
   sodipodi:docname="campana.svg"><metadata
     id="metadata13"><rdf:RDF><cc:Work
         rdf:about=""><dc:format>image/svg+xml</dc:format><dc:type
           rdf:resource="http://purl.org/dc/dcmitype/StillImage" /></cc:Work></rdf:RDF></metadata><defs
     id="defs11" /><sodipodi:namedview
     pagecolor="#ffffff"
     bordercolor="#666666"
     borderopacity="1"
     objecttolerance="10"
     gridtolerance="10"
     guidetolerance="10"
     inkscape:pageopacity="0"
     inkscape:pageshadow="2"
     inkscape:window-width="1366"
     inkscape:window-height="722"
     id="namedview9"
     showgrid="false"
     fit-margin-top="0"
     fit-margin-left="0"
     fit-margin-right="0"
     fit-margin-bottom="0"
     inkscape:zoom="0.4609375"
     inkscape:cx="192"
     inkscape:cy="192"
     inkscape:window-x="0"
     inkscape:window-y="24"
     inkscape:window-maximized="1"
     inkscape:current-layer="Layer_1" /><g
     id="g3"
     transform="translate(-64,-64)"><path
       d="m 381.7,225.9 c 0,-97.6 -52.5,-130.8 -101.6,-138.2 0,-0.5 0.1,-1 0.1,-1.6 C 280.2,73.8 269.3,64 256,64 c -13.3,0 -23.8,9.8 -23.8,22.1 0,0.6 0,1.1 0.1,1.6 -49.2,7.5 -102,40.8 -102,138.4 0,113.8 -28.3,126 -66.3,158 H 448 C 410.2,352 381.7,339.7 381.7,225.9 z"
       id="path5"
       inkscape:connector-curvature="0" /><path
       d="m 256.2,448 c 26.8,0 48.8,-19.9 51.7,-43 H 204.5 c 2.8,23.1 24.9,43 51.7,43 z"
       id="path7"
       inkscape:connector-curvature="0" /></g></svg>